<svg width="21" height="22" viewBox="0 0 21 22" fill="none" xmlns="http://www.w3.org/2000/svg">
<path d="M0.206399 11.0134C0.000788823 5.59992 4.74252 0.597198 10.1615 0.532293C12.9234 0.296726 15.6104 1.36926 17.7005 3.11853C16.8431 4.06125 15.9708 4.99307 15.039 5.86544C13.1989 4.74752 10.9835 3.89558 8.83294 4.65221C5.36435 5.63986 3.26377 9.73526 4.54735 13.1285C5.61035 16.6724 9.92085 18.6173 13.2992 17.1286C15.0485 16.5022 16.2018 14.8882 16.7079 13.1539C14.7031 13.114 12.6978 13.1389 10.693 13.0836C10.688 11.8908 10.683 10.7025 10.688 9.50968C14.0313 9.50469 17.3796 9.49471 20.728 9.52466C20.9336 12.4472 20.5023 15.5749 18.6024 17.9206C16.0007 21.2689 11.1941 22.2516 7.28383 20.9381C3.13396 19.575 0.116076 15.3943 0.206399 11.0134Z" fill="#EA4335"/>
</svg>
