<svg width="23" height="23" viewBox="0 0 23 23" fill="none" xmlns="http://www.w3.org/2000/svg">
<path d="M11.25 22.5C17.4632 22.5 22.5 17.4632 22.5 11.25C22.5 5.0368 17.4632 0 11.25 0C5.0368 0 0 5.0368 0 11.25C0 17.4632 5.0368 22.5 11.25 22.5Z" fill="#E60023"/>
<path d="M11.4997 4.17158C6.64402 4.17158 4.06604 7.43105 4.06604 10.9796C4.06604 12.6298 4.9444 14.6838 6.34979 15.338C6.56265 15.4372 6.67691 15.3943 6.7258 15.1879C6.76342 15.0313 6.95294 14.2672 7.03819 13.9119C7.06544 13.7986 7.05206 13.7012 6.96032 13.5895C6.49515 13.0253 6.12306 11.9886 6.12306 11.022C6.12306 8.54046 8.00179 6.13947 11.2024 6.13947C13.966 6.13947 15.901 8.02297 15.901 10.7165C15.901 13.7596 14.3641 15.8681 12.3646 15.8681C11.2604 15.8681 10.4335 14.9547 10.6988 13.8345C11.0168 12.4974 11.6308 11.0549 11.6308 10.0891C11.6308 9.22543 11.1678 8.50455 10.2077 8.50455C9.07876 8.50455 8.17228 9.67195 8.17228 11.2366C8.17228 12.2322 8.50891 12.9063 8.50891 12.9063C8.50891 12.9063 7.39387 17.6209 7.18962 18.4984C6.96351 19.4672 7.05164 20.8281 7.14949 21.7178C7.40324 21.8173 7.65709 21.9168 7.91943 21.998C8.37893 21.2511 9.0641 20.0261 9.31805 19.0493C9.45521 18.5227 10.0194 16.3748 10.0194 16.3748C10.3859 17.0745 11.4573 17.6668 12.5974 17.6668C15.9902 17.6668 18.4353 14.5467 18.4353 10.6693C18.4353 6.95205 15.4026 4.17158 11.4997 4.17158Z" fill="white"/>
</svg>
