<svg width="23" height="23" viewBox="0 0 23 23" fill="none" xmlns="http://www.w3.org/2000/svg">
<path d="M17.5169 22.5L5.01688 22.5119C2.26688 22.5144 0.0150021 20.2669 0.0118771 17.5169L2.08363e-06 5.01688C-0.00249792 2.26688 2.245 0.0150021 4.995 0.0118771L17.495 2.08363e-06C20.245 -0.00249792 22.4969 2.245 22.5 4.995L22.5119 17.495C22.515 20.2456 20.2669 22.4975 17.5169 22.5Z" fill="url(#paint0_radial_524_2107)"/>
<path d="M17.5169 22.5L5.01688 22.5119C2.26688 22.5144 0.0150021 20.2669 0.0118771 17.5169L2.08363e-06 5.01688C-0.00249792 2.26688 2.245 0.0150021 4.995 0.0118771L17.495 2.08363e-06C20.245 -0.00249792 22.4969 2.245 22.5 4.995L22.5119 17.495C22.515 20.2456 20.2669 22.4975 17.5169 22.5Z" fill="url(#paint1_radial_524_2107)"/>
<path d="M11.2563 15.6313C8.84438 15.6313 6.88125 13.6688 6.88125 11.2563C6.88125 8.84375 8.84438 6.88125 11.2563 6.88125C13.6681 6.88125 15.6313 8.84375 15.6313 11.2563C15.6313 13.6688 13.6681 15.6313 11.2563 15.6313ZM11.2563 8.13125C9.53313 8.13125 8.13125 9.53313 8.13125 11.2563C8.13125 12.9794 9.53313 14.3813 11.2563 14.3813C12.9794 14.3813 14.3813 12.9794 14.3813 11.2563C14.3813 9.53313 12.9794 8.13125 11.2563 8.13125Z" fill="white"/>
<path d="M15.9438 7.50625C16.4615 7.50625 16.8813 7.08652 16.8813 6.56875C16.8813 6.05099 16.4615 5.63125 15.9438 5.63125C15.426 5.63125 15.0063 6.05099 15.0063 6.56875C15.0063 7.08652 15.426 7.50625 15.9438 7.50625Z" fill="white"/>
<path d="M15.0063 19.3813H7.50625C5.09438 19.3813 3.13125 17.4188 3.13125 15.0063V7.50625C3.13125 5.09375 5.09438 3.13125 7.50625 3.13125H15.0063C17.4181 3.13125 19.3813 5.09375 19.3813 7.50625V15.0063C19.3813 17.4188 17.4181 19.3813 15.0063 19.3813ZM7.50625 4.38125C5.78313 4.38125 4.38125 5.78313 4.38125 7.50625V15.0063C4.38125 16.7294 5.78313 18.1313 7.50625 18.1313H15.0063C16.7294 18.1313 18.1313 16.7294 18.1313 15.0063V7.50625C18.1313 5.78313 16.7294 4.38125 15.0063 4.38125H7.50625Z" fill="white"/>
<defs>
<radialGradient id="paint0_radial_524_2107" cx="0" cy="0" r="1" gradientUnits="userSpaceOnUse" gradientTransform="translate(8.36875 22.5281) scale(28.0619)">
<stop stop-color="#FFDD55"/>
<stop offset="0.328" stop-color="#FF543F"/>
<stop offset="0.348" stop-color="#FC5245"/>
<stop offset="0.504" stop-color="#E64771"/>
<stop offset="0.643" stop-color="#D53E91"/>
<stop offset="0.761" stop-color="#CC39A4"/>
<stop offset="0.841" stop-color="#C837AB"/>
</radialGradient>
<radialGradient id="paint1_radial_524_2107" cx="0" cy="0" r="1" gradientUnits="userSpaceOnUse" gradientTransform="translate(3.6225 -0.281059) scale(18.6331 12.4152)">
<stop stop-color="#4168C9"/>
<stop offset="0.999" stop-color="#4168C9" stop-opacity="0"/>
</radialGradient>
</defs>
</svg>
