<svg width="20" height="25" viewBox="0 0 20 25" fill="none" xmlns="http://www.w3.org/2000/svg">
<path d="M0.390625 10.1094C0.390625 8.78125 0.640625 7.53906 1.14062 6.38281C1.64062 5.21094 2.32812 4.19141 3.20312 3.32422C4.07812 2.45703 5.09375 1.76562 6.25 1.25C7.42188 0.75 8.67188 0.5 10 0.5C11.3281 0.5 12.5781 0.75 13.75 1.25C14.9062 1.76562 15.9219 2.45703 16.7969 3.32422C17.6719 4.19141 18.3594 5.21094 18.8594 6.38281C19.3594 7.53906 19.6094 8.78125 19.6094 10.1094V10.3906C19.6094 11.0469 19.5156 11.7422 19.3281 12.4766C19.1406 13.1953 18.8555 13.9453 18.4727 14.7266C18.0898 15.5078 17.6094 16.3047 17.0312 17.1172C16.4688 17.9453 15.8047 18.7969 15.0391 19.6719C13.9453 20.9375 12.9414 21.9688 12.0273 22.7656C11.1133 23.5625 10.6328 23.9844 10.5859 24.0312L10 24.5L9.41406 24.0312C9.36719 23.9844 8.88672 23.5625 7.97266 22.7656C7.05859 21.9688 6.05469 20.9375 4.96094 19.6719C4.19531 18.7969 3.53125 17.9453 2.96875 17.1172C2.39062 16.3047 1.91016 15.5078 1.52734 14.7266C1.14453 13.9453 0.859375 13.1953 0.671875 12.4766C0.484375 11.7422 0.390625 11.0469 0.390625 10.3906V10.1094ZM10 22.0625C10.4688 21.6406 11.1406 21.0078 12.0156 20.1641C12.875 19.3203 13.7305 18.3633 14.582 17.293C15.4336 16.2227 16.1719 15.0859 16.7969 13.8828C17.4219 12.6797 17.7344 11.5156 17.7344 10.3906V10.1094C17.7344 9.04688 17.5312 8.04688 17.125 7.10938C16.7188 6.17188 16.168 5.35156 15.4727 4.64844C14.7773 3.94531 13.9531 3.39062 13 2.98438C12.0625 2.57812 11.0625 2.375 10 2.375C8.9375 2.375 7.9375 2.57812 7 2.98438C6.04688 3.39062 5.22266 3.94531 4.52734 4.64844C3.83203 5.35156 3.28125 6.17188 2.875 7.10938C2.46875 8.04688 2.26562 9.04688 2.26562 10.1094V10.3906C2.26562 11.5156 2.57812 12.6797 3.20312 13.8828C3.82812 15.0859 4.56641 16.2227 5.41797 17.293C6.26953 18.3633 7.125 19.3203 7.98438 20.1641C8.85938 21.0078 9.53125 21.6406 10 22.0625ZM5.54688 10.1094C5.54688 8.89062 5.98047 7.84375 6.84766 6.96875C7.71484 6.09375 8.76562 5.65625 10 5.65625C11.2344 5.65625 12.2852 6.09375 13.1523 6.96875C14.0195 7.84375 14.4531 8.89062 14.4531 10.1094C14.4531 11.3438 14.0195 12.3945 13.1523 13.2617C12.2852 14.1289 11.2344 14.5625 10 14.5625C8.76562 14.5625 7.71484 14.1289 6.84766 13.2617C5.98047 12.3945 5.54688 11.3438 5.54688 10.1094ZM7.42188 10.1094C7.42188 10.8281 7.67188 11.4375 8.17188 11.9375C8.67188 12.4375 9.28125 12.6875 10 12.6875C10.7031 12.6875 11.3086 12.4375 11.8164 11.9375C12.3242 11.4375 12.5781 10.8281 12.5781 10.1094C12.5781 9.40625 12.3242 8.80078 11.8164 8.29297C11.3086 7.78516 10.7031 7.53125 10 7.53125C9.28125 7.53125 8.67188 7.78516 8.17188 8.29297C7.67188 8.80078 7.42188 9.40625 7.42188 10.1094Z" fill="#221F20"/>
</svg>
