<svg width="24" height="20" viewBox="0 0 24 20" fill="none" xmlns="http://www.w3.org/2000/svg">
<path d="M21.0703 0.952148H2.92969C2.11719 0.952148 1.42578 1.24121 0.855469 1.81934C0.285156 2.39746 0 3.09277 0 3.90527V16.2803C0 17.0928 0.285156 17.7881 0.855469 18.3662C1.42578 18.9443 2.11719 19.2334 2.92969 19.2334H21.0703C21.8828 19.2334 22.5742 18.9443 23.1445 18.3662C23.7148 17.7881 24 17.0928 24 16.2803V3.90527C24 3.09277 23.7148 2.39746 23.1445 1.81934C22.5742 1.24121 21.8828 0.952148 21.0703 0.952148ZM22.6641 16.2803C22.6641 16.7334 22.5078 17.1123 22.1953 17.417C21.8828 17.7217 21.5078 17.874 21.0703 17.874H2.92969C2.49219 17.874 2.11719 17.7217 1.80469 17.417C1.49219 17.1123 1.33594 16.7334 1.33594 16.2803V3.90527C1.33594 3.46777 1.49219 3.09277 1.80469 2.78027C2.11719 2.46777 2.49219 2.31152 2.92969 2.31152H21.0703C21.5078 2.31152 21.8828 2.46777 22.1953 2.78027C22.5078 3.09277 22.6641 3.46777 22.6641 3.90527V16.2803ZM15.1406 9.92871L21 4.67871C21.1406 4.55371 21.2148 4.39746 21.2227 4.20996C21.2305 4.02246 21.1719 3.8584 21.0469 3.71777C20.9219 3.59277 20.7695 3.52246 20.5898 3.50684C20.4102 3.49121 20.25 3.5459 20.1094 3.6709L12.0234 10.9365L10.4297 9.53027C10.4297 9.53027 10.4297 9.52246 10.4297 9.50684C10.4141 9.49121 10.3945 9.47559 10.3711 9.45996C10.3477 9.44434 10.3281 9.42871 10.3125 9.41309L3.89062 3.6709C3.75 3.5459 3.58594 3.4873 3.39844 3.49512C3.21094 3.50293 3.05469 3.57715 2.92969 3.71777C2.80469 3.8584 2.75 4.02246 2.76562 4.20996C2.78125 4.39746 2.85938 4.55371 3 4.67871L8.92969 9.97559L3.02344 15.5303C2.88281 15.6553 2.80859 15.8076 2.80078 15.9873C2.79297 16.167 2.85938 16.3271 3 16.4678C3.0625 16.5303 3.13672 16.5811 3.22266 16.6201C3.30859 16.6592 3.39844 16.6787 3.49219 16.6787C3.57031 16.6787 3.64844 16.6631 3.72656 16.6318C3.80469 16.6006 3.875 16.5615 3.9375 16.5146L9.9375 10.8896L11.5781 12.3428C11.6406 12.4053 11.7109 12.4482 11.7891 12.4717C11.8672 12.4951 11.9453 12.5068 12.0234 12.5068C12.1016 12.5068 12.1797 12.4912 12.2578 12.46C12.3359 12.4287 12.4062 12.3896 12.4688 12.3428L14.1328 10.8428L20.1094 16.5146C20.1719 16.5771 20.2422 16.624 20.3203 16.6553C20.3984 16.6865 20.4844 16.7021 20.5781 16.7021C20.6562 16.7021 20.7383 16.6826 20.8242 16.6436C20.9102 16.6045 20.9844 16.5537 21.0469 16.4912C21.1719 16.3506 21.2344 16.1865 21.2344 15.999C21.2344 15.8115 21.1641 15.6553 21.0234 15.5303L15.1406 9.92871Z" fill="#221F20"/>
</svg>
