<svg width="24" height="25" viewBox="0 0 24 25" fill="none" xmlns="http://www.w3.org/2000/svg">
<path d="M18.9614 15.5449C18.727 15.2949 18.4614 15.1035 18.1645 14.9707C17.8677 14.8379 17.563 14.7715 17.2505 14.7715C16.938 14.7715 16.6372 14.8379 16.3481 14.9707C16.0591 15.1035 15.7817 15.2949 15.5161 15.5449L13.9223 17.1387C13.8598 17.1074 13.7934 17.0762 13.7231 17.0449C13.6528 17.0137 13.5864 16.9824 13.5239 16.9512C13.4458 16.9043 13.3638 16.8574 13.2778 16.8105C13.1919 16.7637 13.1098 16.7168 13.0317 16.6699C12.2817 16.2012 11.563 15.6504 10.8755 15.0176C10.188 14.3848 9.5161 13.6699 8.85985 12.873C8.54735 12.4668 8.28172 12.0918 8.06297 11.748C7.84422 11.4043 7.65672 11.0605 7.50047 10.7168C7.7036 10.5293 7.90282 10.3379 8.09813 10.1426C8.29344 9.94727 8.48485 9.75586 8.67235 9.56836C8.73485 9.49023 8.80516 9.41602 8.88328 9.3457C8.96141 9.27539 9.03172 9.20117 9.09422 9.12305C9.62547 8.5918 9.8911 8.00977 9.8911 7.37695C9.8911 6.74414 9.62547 6.16211 9.09422 5.63086L7.71141 4.24805C7.63328 4.16992 7.55516 4.08789 7.47703 4.00195C7.39891 3.91602 7.32078 3.83398 7.24266 3.75586C7.08641 3.59961 6.93016 3.44336 6.77391 3.28711C6.61766 3.13086 6.4536 2.97461 6.28172 2.81836C6.04735 2.56836 5.78563 2.38086 5.49657 2.25586C5.2075 2.13086 4.90672 2.06836 4.59422 2.06836C4.28172 2.06836 3.98094 2.13086 3.69188 2.25586C3.40282 2.38086 3.12547 2.56836 2.85985 2.81836L1.14891 4.57617C0.820784 4.88867 0.562971 5.24414 0.375471 5.64258C0.187971 6.04102 0.0785964 6.4668 0.0473464 6.91992C-0.0151536 7.6543 0.0356277 8.35352 0.19969 9.01758C0.363753 9.68164 0.523909 10.2324 0.680159 10.6699C1.10203 11.7793 1.62547 12.8613 2.25047 13.916C2.87547 14.9707 3.64891 16.0449 4.57078 17.1387C5.11766 17.8105 5.69578 18.4355 6.30516 19.0137C6.91453 19.6074 7.55125 20.166 8.21531 20.6895C8.87938 21.2129 9.57078 21.6934 10.2895 22.1309C11.0083 22.584 11.7427 22.9902 12.4927 23.3496C13.0864 23.6309 13.7622 23.9082 14.52 24.1816C15.2778 24.4551 16.0864 24.623 16.9458 24.6855C17.0083 24.6855 17.0669 24.6855 17.1216 24.6855C17.1763 24.6855 17.227 24.6855 17.2739 24.6855C17.8677 24.6855 18.4067 24.5801 18.8911 24.3691C19.3755 24.1582 19.813 23.8418 20.2036 23.4199C20.2036 23.4199 20.2075 23.4199 20.2153 23.4199C20.2231 23.4199 20.227 23.4121 20.227 23.3965C20.352 23.2402 20.4888 23.0879 20.6372 22.9395C20.7856 22.791 20.938 22.6387 21.0942 22.4824C21.2036 22.3887 21.3169 22.2871 21.4341 22.1777C21.5513 22.0684 21.6645 21.9512 21.7739 21.8262C22.0239 21.5762 22.2114 21.2988 22.3364 20.9941C22.4614 20.6895 22.5239 20.3887 22.5239 20.0918C22.5239 19.7637 22.4575 19.4551 22.3247 19.166C22.1919 18.877 22.0005 18.5996 21.7505 18.334L18.9614 15.5449ZM20.7895 20.8887C20.6802 20.998 20.5747 21.0996 20.4731 21.1934C20.3716 21.2871 20.2661 21.3887 20.1567 21.498C20.0005 21.6543 19.8403 21.8184 19.6763 21.9902C19.5122 22.1621 19.352 22.3418 19.1958 22.5293C18.9302 22.7949 18.645 22.9941 18.3403 23.127C18.0356 23.2598 17.6802 23.3262 17.2739 23.3262C17.2427 23.3262 17.2075 23.3262 17.1684 23.3262C17.1294 23.3262 17.0864 23.3262 17.0395 23.3262C16.2895 23.2793 15.5747 23.1309 14.895 22.8809C14.2153 22.6309 13.6177 22.3809 13.102 22.1309C12.3833 21.7871 11.688 21.4043 11.0161 20.9824C10.3442 20.5605 9.69578 20.1074 9.07078 19.623C8.44578 19.1387 7.84422 18.6152 7.2661 18.0527C6.68797 17.4902 6.1411 16.8965 5.62547 16.2715C4.7661 15.2402 4.03953 14.2285 3.44578 13.2363C2.85203 12.2441 2.35985 11.2324 1.96922 10.2012C1.73485 9.57617 1.57469 9.00586 1.48875 8.49023C1.40282 7.97461 1.37547 7.49023 1.40672 7.03711C1.43797 6.74023 1.50828 6.4668 1.61766 6.2168C1.72703 5.9668 1.8911 5.74023 2.10985 5.53711L3.84422 3.80273C3.9536 3.67773 4.07469 3.58789 4.2075 3.5332C4.34032 3.47852 4.46922 3.45117 4.59422 3.45117C4.7661 3.45117 4.91453 3.49023 5.03953 3.56836C5.16453 3.64648 5.2661 3.72461 5.34422 3.80273C5.34422 3.80273 5.35203 3.80273 5.36766 3.80273C5.50828 3.95898 5.65672 4.11133 5.81297 4.25977C5.96922 4.4082 6.11766 4.56055 6.25828 4.7168C6.33641 4.79492 6.41844 4.87695 6.50438 4.96289C6.59032 5.04883 6.67235 5.13086 6.75047 5.20898L8.13328 6.5918C8.39891 6.85742 8.53172 7.11914 8.53172 7.37695C8.53172 7.63477 8.39891 7.89648 8.13328 8.16211C8.05516 8.24023 7.98094 8.31445 7.91063 8.38477C7.84032 8.45508 7.7661 8.5293 7.68797 8.60742C7.48485 8.82617 7.27782 9.03711 7.06688 9.24023C6.85594 9.44336 6.6411 9.63867 6.42235 9.82617C6.42235 9.8418 6.41844 9.84961 6.41063 9.84961C6.40282 9.84961 6.39891 9.84961 6.39891 9.84961C6.18016 10.0684 6.07078 10.2793 6.07078 10.4824C6.07078 10.6855 6.09422 10.8574 6.1411 10.998C6.1411 11.0137 6.1411 11.0254 6.1411 11.0332C6.1411 11.041 6.1411 11.0449 6.1411 11.0449C6.3286 11.4824 6.55516 11.916 6.82078 12.3457C7.08641 12.7754 7.40672 13.2324 7.78172 13.7168L7.80516 13.7402C8.49266 14.5996 9.2075 15.3652 9.94969 16.0371C10.6919 16.709 11.4692 17.3027 12.2817 17.8184C12.3911 17.8809 12.5005 17.9395 12.6098 17.9941C12.7192 18.0488 12.8208 18.1074 12.9145 18.1699C13.0083 18.2168 13.0981 18.2598 13.1841 18.2988C13.27 18.3379 13.3442 18.3809 13.4067 18.4277C13.4223 18.4277 13.4341 18.4316 13.4419 18.4395C13.4497 18.4473 13.4614 18.459 13.477 18.4746C13.5708 18.5059 13.6567 18.5332 13.7348 18.5566C13.813 18.5801 13.8911 18.5918 13.9692 18.5918C14.188 18.5918 14.3638 18.5449 14.4966 18.4512C14.6294 18.3574 14.7114 18.2871 14.7427 18.2402L16.477 16.5059C16.5708 16.4277 16.6841 16.3457 16.8169 16.2598C16.9497 16.1738 17.0942 16.1309 17.2505 16.1309C17.4067 16.1309 17.5473 16.1699 17.6723 16.248C17.7973 16.3262 17.8989 16.4121 17.977 16.5059L20.7661 19.2949C21.0317 19.5605 21.1645 19.8262 21.1645 20.0918C21.1645 20.3574 21.0395 20.623 20.7895 20.8887ZM12.9614 6.4043C13.6333 6.51367 14.2661 6.7207 14.8598 7.02539C15.4536 7.33008 15.9927 7.72461 16.477 8.20898C16.9458 8.69336 17.3364 9.23242 17.6489 9.82617C17.9614 10.4199 18.1723 11.0449 18.2817 11.7012C18.313 11.873 18.3911 12.0098 18.5161 12.1113C18.6411 12.2129 18.7895 12.2637 18.9614 12.2637C18.977 12.2637 18.9927 12.2637 19.0083 12.2637C19.0239 12.2637 19.0473 12.2637 19.0786 12.2637C19.2661 12.2324 19.4145 12.1387 19.5239 11.9824C19.6333 11.8262 19.6723 11.6543 19.6411 11.4668C19.5005 10.6699 19.2427 9.91211 18.8677 9.19336C18.4927 8.47461 18.0161 7.82617 17.438 7.24805C16.8598 6.66992 16.2114 6.19336 15.4927 5.81836C14.7739 5.44336 14.0161 5.18555 13.2192 5.04492C13.0317 5.01367 12.8598 5.05273 12.7036 5.16211C12.5473 5.27148 12.4536 5.41992 12.4223 5.60742C12.3911 5.79492 12.4263 5.9668 12.5278 6.12305C12.6294 6.2793 12.7739 6.37305 12.9614 6.4043ZM23.977 11.2793C23.8677 10.6074 23.7036 9.95898 23.4848 9.33398C23.2817 8.70898 23.0278 8.10352 22.7231 7.51758C22.4184 6.93164 22.0708 6.37305 21.6802 5.8418C21.2739 5.29492 20.8364 4.78711 20.3677 4.31836C19.8833 3.83398 19.3755 3.39648 18.8442 3.00586C18.2973 2.61523 17.7309 2.26758 17.145 1.96289C16.5591 1.6582 15.9536 1.39648 15.3286 1.17773C14.7036 0.974609 14.063 0.810547 13.4067 0.685547C13.2192 0.654297 13.0473 0.693359 12.8911 0.802734C12.7348 0.912109 12.6411 1.06055 12.6098 1.24805C12.5786 1.43555 12.6177 1.60742 12.727 1.76367C12.8364 1.91992 12.9848 2.01367 13.1723 2.04492C14.3598 2.24805 15.4809 2.62305 16.5356 3.16992C17.5903 3.7168 18.5473 4.41992 19.4067 5.2793C20.2505 6.12305 20.9497 7.07617 21.5044 8.13867C22.0591 9.20117 22.4302 10.3184 22.6177 11.4902C22.6489 11.6621 22.7309 11.7988 22.8638 11.9004C22.9966 12.002 23.1411 12.0527 23.2973 12.0527C23.313 12.0527 23.3325 12.0527 23.3559 12.0527C23.3794 12.0527 23.3989 12.0527 23.4145 12.0527C23.602 12.0215 23.7505 11.9316 23.8598 11.7832C23.9692 11.6348 24.0083 11.4668 23.977 11.2793Z" fill="#221F20"/>
</svg>
